<svg width="18" height="18" viewBox="0 0 18 18" fill="none" xmlns="http://www.w3.org/2000/svg">
<path d="M17.1212 18.0001C17.2951 18.0001 17.465 17.9486 17.6096 17.852C17.7542 17.7555 17.8669 17.6182 17.9334 17.4576C17.9999 17.297 18.0173 17.1202 17.9834 16.9497C17.9495 16.7792 17.8657 16.6226 17.7428 16.4996L1.50061 0.25746C1.33576 0.092611 1.11218 0 0.879047 0C0.645916 0 0.422333 0.092611 0.257484 0.25746C0.0926361 0.422308 2.47955e-05 0.645891 2.47955e-05 0.879022C2.47955e-05 1.11215 0.0926361 1.33574 0.257484 1.50058L16.4997 17.7428C16.5812 17.8245 16.6781 17.8893 16.7848 17.9335C16.8914 17.9776 17.0058 18.0003 17.1212 18.0001Z" fill="white"/>
<path d="M0.878851 18.0001C0.994299 18.0003 1.10864 17.9776 1.21531 17.9335C1.32197 17.8893 1.41886 17.8245 1.50041 17.7428L17.7426 1.50058C17.9075 1.33574 18.0001 1.11215 18.0001 0.879022C18.0001 0.645891 17.9075 0.422308 17.7426 0.25746C17.5778 0.092611 17.3542 0 17.121 0C16.8879 0 16.6643 0.092611 16.4995 0.25746L0.25729 16.4996C0.134338 16.6226 0.0506039 16.7792 0.0166779 16.9497C-0.0172482 17.1202 0.00015831 17.297 0.0666943 17.4576C0.13323 17.6182 0.245907 17.7555 0.390472 17.852C0.535038 17.9486 0.704996 18.0001 0.878851 18.0001Z" fill="white"/>
</svg>
