<svg width="56" height="56" viewBox="0 0 56 56" fill="none" xmlns="http://www.w3.org/2000/svg">
<circle cx="28" cy="28" r="27" stroke="white" stroke-width="2"/>
<path d="M25.0722 41.9845C23.5349 41.9845 22.2841 40.7337 22.2841 39.1963C22.2841 37.6589 23.5349 36.4086 25.0722 36.4086C26.6096 36.4086 27.8604 37.6589 27.8604 39.1963C27.8604 40.7337 26.6096 41.9845 25.0722 41.9845ZM25.0722 38.1586C24.5 38.1586 24.0341 38.6241 24.0341 39.1963C24.0341 39.769 24.4996 40.2345 25.0722 40.2345C25.6449 40.2345 26.1104 39.769 26.1104 39.1963C26.1104 38.6241 25.6449 38.1586 25.0722 38.1586Z" fill="white"/>
<path d="M34.7646 41.9845C33.2272 41.9845 31.9769 40.7337 31.9769 39.1963C31.9769 37.6589 33.2272 36.4086 34.7646 36.4086C36.302 36.4086 37.5528 37.6589 37.5528 39.1963C37.5528 40.7337 36.3016 41.9845 34.7646 41.9845ZM34.7646 38.1586C34.1924 38.1586 33.7269 38.6241 33.7269 39.1963C33.7269 39.769 34.1924 40.2345 34.7646 40.2345C35.3373 40.2345 35.8028 39.769 35.8028 39.1963C35.8028 38.6241 35.3369 38.1586 34.7646 38.1586Z" fill="white"/>
<path d="M36.806 34.2473H23.0602C21.7228 34.2473 20.5805 33.3369 20.2821 32.0331L17.4291 19.5744C17.3915 19.4099 17.2778 19.2691 17.1246 19.1982L14.7582 18.1014C14.2105 17.8476 13.972 17.1975 14.2258 16.6493C14.4795 16.1016 15.1301 15.8631 15.6778 16.1169L18.0443 17.2137C18.8068 17.5668 19.3743 18.2668 19.5615 19.0862L22.4145 31.5458C22.4836 31.8485 22.7491 32.0603 23.0602 32.0603H36.806C37.1158 32.0603 37.3809 31.8498 37.4518 31.5479L39.6699 22.0048C39.7333 21.7335 39.6178 21.5362 39.5439 21.443C39.4695 21.3494 39.3033 21.1928 39.025 21.1928H22.8375C22.2333 21.1928 21.7438 20.7032 21.7438 20.099C21.7438 19.4948 22.2333 19.0053 22.8375 19.0053H39.025C39.8996 19.0053 40.7125 19.3977 41.2567 20.0824C41.801 20.7671 41.9987 21.6482 41.801 22.5L39.5824 32.0436C39.2801 33.3408 38.1386 34.2473 36.806 34.2473Z" fill="white"/>
</svg>
