<svg width="56" height="56" viewBox="0 0 56 56" fill="none" xmlns="http://www.w3.org/2000/svg">
<circle cx="28" cy="28" r="27" stroke="white" stroke-width="2"/>
<path d="M36.7 27.6812C39.5697 25.1014 39.8047 20.6838 37.2249 17.8141C34.8588 15.1821 30.8984 14.735 28.005 16.7732C24.8509 14.5473 20.4896 15.2997 18.2636 18.4537C16.2211 21.3478 16.6664 25.3123 19.3001 27.6812C16.0277 29.4062 13.9853 32.807 14.0001 36.5061V39.5061C14.0001 40.0584 14.4479 40.5061 15.0002 40.5061H41C41.5523 40.5061 42 40.0584 42 39.5061V36.5061C42.0148 32.807 39.9724 29.4062 36.7 27.6812ZM32 17.5062C34.7575 17.5032 36.9954 19.7361 36.9985 22.4937C37.0007 24.4603 35.8483 26.245 34.055 27.0522C33.978 27.0872 33.901 27.1191 33.823 27.1522C33.5762 27.2517 33.3217 27.331 33.062 27.3892C33.012 27.4002 32.962 27.4062 32.911 27.4162C32.6208 27.4718 32.3264 27.5016 32.031 27.5052C31.898 27.5052 31.764 27.4952 31.631 27.4832C31.581 27.4832 31.531 27.4832 31.481 27.4732C30.9126 27.4063 30.3597 27.2434 29.846 26.9912C29.827 26.9822 29.805 26.9832 29.786 26.9752C29.686 26.9273 29.586 26.8852 29.497 26.8312C29.505 26.8212 29.51 26.8102 29.518 26.8002C29.9765 26.211 30.338 25.5524 30.5889 24.8492L30.6199 24.7652C30.734 24.4294 30.8226 24.0854 30.885 23.7362C30.894 23.6852 30.901 23.6362 30.909 23.5812C30.9668 23.2257 30.9972 22.8664 31 22.5062C30.9971 22.1467 30.9667 21.788 30.909 21.4332C30.901 21.3812 30.894 21.3332 30.885 21.2782C30.8226 20.929 30.734 20.585 30.6199 20.2492L30.5889 20.1652C30.338 19.462 29.9765 18.8034 29.518 18.2142C29.5099 18.2042 29.505 18.1932 29.497 18.1832C30.2567 17.74 31.1204 17.5063 32 17.5062ZM19.0001 22.5063C18.993 19.752 21.22 17.5135 23.9742 17.5064C25.2653 17.5031 26.5073 18.0006 27.4391 18.8943C27.4971 18.9503 27.5541 19.0062 27.6101 19.0642C27.7818 19.2442 27.9402 19.4364 28.0841 19.6392C28.1281 19.7012 28.1681 19.7672 28.2091 19.8312C28.3488 20.0463 28.4715 20.272 28.576 20.5062C28.601 20.5632 28.62 20.6212 28.642 20.6782C28.7474 20.9372 28.8304 21.2049 28.89 21.4782C28.8971 21.5082 28.8991 21.5382 28.905 21.5692C29.0317 22.1901 29.0317 22.8302 28.905 23.4511C28.8991 23.4821 28.897 23.5121 28.89 23.5421C28.8304 23.8154 28.7475 24.0831 28.642 24.3421C28.62 24.3991 28.601 24.4571 28.576 24.5141C28.4714 24.7479 28.3487 24.9733 28.2091 25.1881C28.168 25.2521 28.1281 25.3181 28.0841 25.3801C27.9402 25.583 27.7818 25.7751 27.6101 25.9551C27.554 26.0131 27.497 26.0691 27.4391 26.125C27.0342 26.5109 26.5674 26.8259 26.0581 27.057C25.9771 27.094 25.8951 27.1281 25.8121 27.1571C25.5711 27.2527 25.323 27.3296 25.0701 27.387C25.0072 27.401 24.9421 27.409 24.8781 27.42C24.6066 27.4706 24.3313 27.4983 24.0551 27.5031H23.9452C23.669 27.4984 23.3937 27.4706 23.1221 27.42C23.0582 27.409 22.9931 27.401 22.9301 27.387C22.6772 27.3296 22.4292 27.2527 22.1882 27.1571C22.1051 27.1241 22.0232 27.0901 21.9422 27.057C20.1531 26.2493 19.0024 24.4692 19.0001 22.5063ZM32 38.5061H16.0001V36.5062C15.9855 33.1175 18.1205 30.0921 21.3181 28.9702C23.0346 29.6849 24.9654 29.6849 26.6821 28.9702C27.0159 29.0922 27.3413 29.2362 27.6561 29.4012C27.8641 29.5082 28.0561 29.6302 28.256 29.7532C28.3861 29.8342 28.518 29.9132 28.6431 30.0022C28.8361 30.1392 29.0181 30.2882 29.1971 30.4412C29.3121 30.5412 29.426 30.6412 29.534 30.7412C29.699 30.8972 29.854 31.0622 30.003 31.2312C30.11 31.3532 30.214 31.4772 30.313 31.6052C30.444 31.7732 30.569 31.9453 30.685 32.1222C30.7851 32.2722 30.8741 32.4282 30.962 32.5842C31.062 32.7562 31.154 32.9282 31.238 33.1072C31.322 33.2862 31.396 33.4822 31.468 33.6732C31.531 33.8392 31.598 34.0042 31.65 34.1732C31.72 34.4052 31.769 34.6452 31.8179 34.8852C31.8479 35.0272 31.887 35.1662 31.9089 35.3102C31.9682 35.7061 31.9986 36.1058 31.9999 36.5062L32 38.5061ZM40 38.5061H34V36.5062C34 36.1932 33.982 35.8831 33.954 35.5762C33.946 35.4862 33.9321 35.3972 33.922 35.3072C33.895 35.0862 33.864 34.8672 33.822 34.6502C33.804 34.5575 33.785 34.4645 33.765 34.3711C33.717 34.1485 33.6614 33.9278 33.598 33.7092C33.577 33.6371 33.558 33.5641 33.536 33.4932C33.256 32.598 32.8502 31.7473 32.331 30.9662L32.292 30.9092C32.1201 30.6539 31.9364 30.4069 31.741 30.1682L31.734 30.1592C31.5341 29.9112 31.317 29.6702 31.089 29.4422C31.102 29.4422 31.1161 29.4422 31.1301 29.4422C31.4122 29.4793 31.6964 29.4993 31.9811 29.5022H32.0361C32.2995 29.4999 32.5625 29.4829 32.8241 29.4512C32.9061 29.4412 32.9871 29.4262 33.0691 29.4132C33.2818 29.3806 33.4918 29.3382 33.6991 29.2862C33.7581 29.2712 33.8181 29.2572 33.8781 29.2402C34.1501 29.1662 34.4173 29.0753 34.6781 28.9682C37.878 30.089 40.0149 33.1158 40.0001 36.5062V38.5061H40Z" fill="white"/>
</svg>
