<svg width="56" height="56" viewBox="0 0 56 56" fill="none" xmlns="http://www.w3.org/2000/svg">
<circle cx="28" cy="28" r="27" stroke="white" stroke-width="2"/>
<g clip-path="url(#clip0_1146_602)">
<path d="M34.5188 32.3137C34.2749 32.069 33.9851 31.8748 33.666 31.7423C33.347 31.6098 33.0049 31.5416 32.6594 31.5416C32.3139 31.5416 31.9718 31.6098 31.6527 31.7423C31.3337 31.8748 31.0439 32.069 30.8 32.3137L29.5313 33.5824C28.1027 32.6758 26.7792 31.6135 25.585 30.4149C24.389 29.2185 23.3269 27.8952 22.4175 26.4687L23.6863 25.1999C23.931 24.9561 24.1252 24.6663 24.2577 24.3472C24.3901 24.0281 24.4583 23.6861 24.4583 23.3406C24.4583 22.9951 24.3901 22.653 24.2577 22.3339C24.1252 22.0148 23.931 21.7251 23.6863 21.4812L21.21 19.0137C20.9696 18.7682 20.6823 18.5735 20.3651 18.4412C20.0479 18.3089 19.7074 18.2418 19.3638 18.2437C19.0177 18.2428 18.6749 18.3104 18.355 18.4426C18.0351 18.5747 17.7446 18.7688 17.5 19.0137L16.31 20.1949C15.7428 20.8048 15.3195 21.534 15.0712 22.329C14.8228 23.1239 14.7558 23.9644 14.875 24.7887C15.155 28.0699 17.3075 32.0162 20.6238 35.3412C23.94 38.6662 27.93 40.8099 31.2113 41.1249C31.4561 41.138 31.7014 41.138 31.9463 41.1249C32.6526 41.1546 33.3577 41.0429 34.0203 40.7965C34.6829 40.5501 35.2897 40.1739 35.805 39.6899L36.9863 38.4999C37.2311 38.2554 37.4252 37.9648 37.5574 37.645C37.6895 37.3251 37.7571 36.9823 37.7563 36.6362C37.7582 36.2926 37.691 35.952 37.5588 35.6349C37.4265 35.3177 37.2318 35.0304 36.9863 34.7899L34.5188 32.3137ZM35.7525 37.2662L34.5625 38.4474C34.1225 38.8141 33.6089 39.082 33.0564 39.233C32.5038 39.384 31.9253 39.4145 31.36 39.3224C28.5163 39.0774 24.8938 37.0649 21.9013 34.0724C18.9088 31.0799 16.8963 27.4837 16.625 24.6399C16.5307 24.0746 16.56 23.4956 16.7111 22.9427C16.8621 22.3898 17.1313 21.8762 17.5 21.4374L18.7338 20.2474C18.8155 20.1663 18.9125 20.1022 19.0191 20.0586C19.1257 20.0151 19.2399 19.993 19.355 19.9937C19.4702 19.993 19.5843 20.0151 19.6909 20.0586C19.7975 20.1022 19.8945 20.1663 19.9763 20.2474L22.4525 22.7499C22.6155 22.9139 22.707 23.1357 22.707 23.3668C22.707 23.598 22.6155 23.8198 22.4525 23.9837L20.7025 25.7337C20.5656 25.87 20.4776 26.0477 20.4523 26.2392C20.4269 26.4308 20.4657 26.6253 20.5625 26.7924C21.6102 28.5761 22.8837 30.2171 24.3513 31.6749C25.8091 33.1426 27.4501 34.416 29.2338 35.4637C29.4009 35.5605 29.5955 35.5993 29.787 35.574C29.9785 35.5486 30.1563 35.4606 30.2925 35.3237L32.0425 33.5737C32.2065 33.4107 32.4282 33.3193 32.6594 33.3193C32.8906 33.3193 33.1123 33.4107 33.2763 33.5737L35.7525 36.0499C35.8336 36.1317 35.8978 36.2287 35.9413 36.3353C35.9849 36.4419 36.0069 36.556 36.0063 36.6712C36.0008 36.8947 35.91 37.1076 35.7525 37.2662Z" fill="white"/>
<path d="M37.275 18.7163C36.059 17.4956 34.6134 16.5278 33.0215 15.8685C31.4296 15.2092 29.723 14.8716 28 14.875C27.7679 14.875 27.5454 14.9672 27.3813 15.1313C27.2172 15.2954 27.125 15.518 27.125 15.75C27.125 15.9821 27.2172 16.2047 27.3813 16.3687C27.5454 16.5328 27.7679 16.625 28 16.625C29.5019 16.625 30.989 16.9224 32.3754 17.5C33.7618 18.0777 35.02 18.9242 36.0776 19.9906C37.1351 21.0571 37.971 22.3225 38.5369 23.7137C39.1029 25.1049 39.3877 26.5944 39.375 28.0963C39.375 28.3283 39.4672 28.5509 39.6313 28.715C39.7954 28.8791 40.0179 28.9713 40.25 28.9713C40.4821 28.9713 40.7046 28.8791 40.8687 28.715C41.0328 28.5509 41.125 28.3283 41.125 28.0963C41.1418 26.355 40.8097 24.6279 40.1485 23.017C39.4873 21.406 38.5103 19.9437 37.275 18.7163Z" fill="white"/>
<path d="M32.2962 23.7213C32.7928 24.2149 33.1856 24.8028 33.4516 25.4504C33.7176 26.0981 33.8513 26.7924 33.845 27.4925C33.845 27.7246 33.9372 27.9472 34.1013 28.1112C34.2653 28.2753 34.4879 28.3675 34.72 28.3675C34.952 28.3675 35.1746 28.2753 35.3387 28.1112C35.5028 27.9472 35.595 27.7246 35.595 27.4925C35.6066 26.5659 35.434 25.6463 35.0875 24.7869C34.7409 23.9275 34.2271 23.1454 33.5759 22.4861C32.9247 21.8268 32.1492 21.3034 31.2941 20.9461C30.4391 20.5889 29.5216 20.405 28.595 20.405C28.3629 20.405 28.1403 20.4972 27.9763 20.6613C27.8122 20.8254 27.72 21.048 27.72 21.28C27.72 21.5121 27.8122 21.7347 27.9763 21.8987C28.1403 22.0628 28.3629 22.155 28.595 22.155C29.2845 22.1602 29.9663 22.3012 30.6014 22.57C31.2365 22.8387 31.8124 23.2299 32.2962 23.7213Z" fill="white"/>
</g>
<defs>
<clipPath id="clip0_1146_602">
<rect width="28" height="28" fill="white" transform="translate(14 14)"/>
</clipPath>
</defs>
</svg>
